<svg width="160" height="25" viewBox="0 0 160 25" fill="none" xmlns="http://www.w3.org/2000/svg">
<path d="M100.52 7.13757H82.6132C81.852 7.1772 81.1214 7.44987 80.5204 7.91863C79.9194 8.3874 79.477 9.0296 79.2532 9.75821L77.5228 16.0558C77.1305 17.4994 77.9906 18.6714 79.4493 18.6714H97.3613C98.1224 18.6318 98.853 18.3591 99.4541 17.8904C100.055 17.4216 100.497 16.7794 100.721 16.0508L102.447 9.75318C102.844 8.30956 101.984 7.13757 100.52 7.13757ZM93.4328 15.3767C93.424 15.4007 93.4083 15.4216 93.3878 15.4368C93.3672 15.452 93.3426 15.4609 93.3171 15.4623H85.2691C85.2585 15.4628 85.2479 15.4607 85.2383 15.4563C85.2287 15.4518 85.2204 15.4451 85.2139 15.4367C85.2075 15.4283 85.2032 15.4184 85.2014 15.408C85.1996 15.3975 85.2004 15.3868 85.2037 15.3767L86.5618 10.4423C86.5674 10.417 86.5814 10.3943 86.6015 10.3779C86.6215 10.3615 86.6465 10.3523 86.6724 10.3517H94.7205C94.7311 10.3512 94.7416 10.3533 94.7512 10.3578C94.7608 10.3622 94.7692 10.3689 94.7756 10.3773C94.7821 10.3858 94.7863 10.3956 94.7881 10.406C94.7899 10.4165 94.7891 10.4272 94.7859 10.4373L93.4328 15.3767Z" fill="#282828"/>
<path d="M146.711 15.4271C146.7 15.4276 146.69 15.4256 146.68 15.4211C146.67 15.4166 146.662 15.4099 146.656 15.4015C146.649 15.3931 146.645 15.3833 146.643 15.3728C146.641 15.3624 146.642 15.3517 146.645 15.3416L147.998 10.4021C148.007 10.3788 148.022 10.3585 148.041 10.3433C148.061 10.3282 148.085 10.3189 148.109 10.3166H159.12L160 7.10242H144.07C143.302 7.13532 142.563 7.40548 141.955 7.87571C141.347 8.34594 140.9 8.9931 140.675 9.72809L138.949 16.0257C138.552 17.4693 139.412 18.6413 140.871 18.6413H156.801L157.681 15.4271H146.711Z" fill="#282828"/>
<path d="M52.9912 7.16272H45.5569L33.9979 18.7066H41.4373L50.6321 9.51677L49.0376 15.4673H44.918L48.1624 18.7066H48.1674H55.5968H55.6068L58.7053 7.16272H52.9912Z" fill="#282828"/>
<path d="M26.5686 7.12754L32.5644 1.08145L33.6458 0H24.3503L17.2228 7.12754H2.55525L9.91417 14.4865L0 24.3956H9.30051L14.5619 19.1342L18.938 23.5053L20.8997 16.1766L18.435 13.7018H23.0325L20.1654 24.3956H26.971L29.8331 13.7018H32.2726L38.8469 7.12754H26.5686Z" fill="#DA291C"/>
<path d="M128.965 18.6513L136.429 18.6463L139.593 7.10742L132.124 7.11245L128.965 18.6513Z" fill="#282828"/>
<path d="M78.7752 7.14771L60.2044 7.15777L59.3342 10.3367L64.8823 10.3317L62.5936 18.6866L70.0582 18.6816L72.3519 10.3267L77.905 10.3216L78.7752 7.14771Z" fill="#282828"/>
<path d="M123.653 7.12749L123.633 7.11743H120.494L115.902 13.2792L114.69 7.12246L111.551 7.12749L111.526 7.13755L104.941 7.14258L101.777 18.6613L109.247 18.6563L111.008 12.233L112.27 18.6513H116.581L121.369 12.2279L119.609 18.6462L127.073 18.6412L130.237 7.12246L123.653 7.12749Z" fill="#282828"/>
</svg>
